<svg width="130" height="48" viewBox="0 0 130 48" fill="none" xmlns="http://www.w3.org/2000/svg">
<path d="M17.3005 19.4089C16.6173 18.7558 15.7069 18.3916 14.7614 18.3916H1.20068V40.6086H8.71772V25.5745H16.2347V38.1029C16.2347 39.4861 17.3573 40.6086 18.7404 40.6086H23.7518V27.1464C23.7518 26.1425 23.3408 25.1837 22.6159 24.4887L17.3005 19.4089Z" fill="#22D081"/>
<path d="M16.2344 7.19922V14.3822H27.4264V25.5742H34.6093V7.19922H16.2344Z" fill="#22D081"/>
<path d="M67.5486 19.2051C66.9906 18.6823 66.2556 18.3916 65.4922 18.3916H52.9839V40.6086H58.3293V23.403H66.6816V38.6041C66.6816 39.7116 67.5786 40.6086 68.6861 40.6086H72.027V24.7059C72.027 23.874 71.6829 23.0806 71.0765 22.5126L67.5486 19.2051V19.2051Z" fill="#3C0050"/>
<path d="M127.32 18.3916H121.974V40.6086H127.32V18.3916Z" fill="#3C0050"/>
<path d="M107.941 38.27L102.93 18.3916H97.2505L103.343 39.1687C103.593 40.0223 104.377 40.6086 105.267 40.6086H110.617C111.508 40.6086 112.291 40.0223 112.542 39.1687L118.634 18.3916H112.954L107.943 38.27H107.941Z" fill="#3C0050"/>
<path d="M90.6143 19.2719C90.0497 18.7073 89.2863 18.3916 88.4878 18.3916H78.3749V21.3984C78.3749 22.5059 79.2719 23.403 80.3794 23.403H89.7339V27.0779H81.5604C80.802 27.0779 80.0704 27.3653 79.5141 27.8814L76.6092 30.5792C76.0312 31.1171 75.7021 31.8705 75.7021 32.6606V34.8639C75.7021 35.6524 76.0296 36.4057 76.6075 36.942L79.6812 39.8034C80.2374 40.3213 80.9691 40.6103 81.7308 40.6103H94.747V24.6508C94.747 23.854 94.4296 23.0889 93.8666 22.5243L90.6159 19.2736L90.6143 19.2719ZM89.7339 36.0984H80.7135V31.087H89.7339V36.0984Z" fill="#3C0050"/>
</svg>
