<svg width="20" height="20" viewBox="0 0 25 25" fill="none" xmlns="http://www.w3.org/2000/svg">
    <path
        d="M21.7998 14.7999C21.4648 8.61899 16.5098 3.66406 10.3289 3.329V3.29993H10.1289C9.95936 3.29993 9.82891 3.16948 9.82891 2.99993L9.82891 1.01993L9.8289 1.01868C9.82865 0.977543 9.83666 0.936772 9.85247 0.898791C9.86828 0.86081 9.89156 0.826393 9.92093 0.797586C9.9503 0.76878 9.98516 0.74617 10.0234 0.731101C10.0615 0.716126 10.1021 0.708901 10.143 0.709848C17.8975 0.976727 24.1526 7.23219 24.419 14.9868L24.419 14.9871C24.4249 15.1522 24.2874 15.2999 24.1089 15.2999H22.1289C21.9594 15.2999 21.8289 15.1695 21.8289 14.9999V14.7999H21.7998ZM16.7837 14.7999C16.4676 11.3798 13.7491 8.66124 10.3289 8.34519V8.29993H10.1289C9.95936 8.29993 9.82891 8.16948 9.82891 7.99993V6.02082C9.82931 5.97971 9.83778 5.93907 9.85385 5.90121C9.87 5.86316 9.89351 5.82867 9.92303 5.79972C9.95254 5.77077 9.98748 5.74794 10.0258 5.73253C10.0631 5.71757 10.1028 5.70989 10.1429 5.7099C15.138 5.97668 19.1536 9.99313 19.4191 14.9885C19.424 15.1505 19.2795 15.2999 19.1089 15.2999H17.1289C16.9594 15.2999 16.8289 15.1695 16.8289 14.9999V14.7999H16.7837ZM0.828906 6.99993C0.828906 6.83039 0.959363 6.69993 1.12891 6.69993H4.12891C4.29845 6.69993 4.42891 6.83039 4.42891 6.99993V17.9999C4.42891 18.3545 4.49874 18.7056 4.63443 19.0332C4.77012 19.3608 4.969 19.6584 5.21972 19.9091C5.47044 20.1598 5.76808 20.3587 6.09566 20.4944C6.42324 20.6301 6.77434 20.6999 7.12891 20.6999C7.84499 20.6999 8.53175 20.4155 9.03809 19.9091C9.54444 19.4028 9.82891 18.716 9.82891 17.9999C9.82891 17.2838 9.54444 16.5971 9.03809 16.0907C8.53175 15.5844 7.84499 15.2999 7.12891 15.2999C6.95936 15.2999 6.82891 15.1695 6.82891 14.9999V11.9999C6.82891 11.8304 6.95936 11.6999 7.12891 11.6999C10.5984 11.6999 13.4289 14.5304 13.4289 17.9999C13.4289 21.4695 10.5984 24.2999 7.12891 24.2999C3.65936 24.2999 0.828906 21.4695 0.828906 17.9999V6.99993Z"
        fill="black" stroke="#EDEDED" stroke-width="0.4" />
</svg>